<mxfile host="app.diagrams.net" agent="Mozilla/5.0 (Windows NT 10.0; Win64; x64) AppleWebKit/537.36 (KHTML, like Gecko) Chrome/139.0.0.0 Safari/537.36" version="28.0.7">
  <diagram name="Page-1" id="ZUmG1kkEoocdncWsCq4i">
    <mxGraphModel dx="1310" dy="963" grid="1" gridSize="10" guides="1" tooltips="1" connect="1" arrows="1" fold="1" page="1" pageScale="1" pageWidth="850" pageHeight="1100" math="0" shadow="0">
      <root>
        <mxCell id="0" />
        <mxCell id="1" parent="0" />
        <mxCell id="8txxsvsdvNJO4Pn-lYR--1" value="IGN" style="rounded=0;whiteSpace=wrap;html=1;" vertex="1" parent="1">
          <mxGeometry x="180" y="250" width="120" height="60" as="geometry" />
        </mxCell>
        <mxCell id="8txxsvsdvNJO4Pn-lYR--13" style="edgeStyle=orthogonalEdgeStyle;rounded=0;orthogonalLoop=1;jettySize=auto;html=1;exitX=1;exitY=0.5;exitDx=0;exitDy=0;entryX=0;entryY=0.5;entryDx=0;entryDy=0;" edge="1" parent="1" source="8txxsvsdvNJO4Pn-lYR--2" target="8txxsvsdvNJO4Pn-lYR--9">
          <mxGeometry relative="1" as="geometry" />
        </mxCell>
        <mxCell id="8txxsvsdvNJO4Pn-lYR--2" value="BELTD" style="rounded=0;whiteSpace=wrap;html=1;" vertex="1" parent="1">
          <mxGeometry x="180" y="460" width="120" height="60" as="geometry" />
        </mxCell>
        <mxCell id="8txxsvsdvNJO4Pn-lYR--3" value="BELTP" style="rounded=0;whiteSpace=wrap;html=1;" vertex="1" parent="1">
          <mxGeometry x="180" y="570" width="120" height="60" as="geometry" />
        </mxCell>
        <mxCell id="8txxsvsdvNJO4Pn-lYR--17" style="edgeStyle=orthogonalEdgeStyle;rounded=0;orthogonalLoop=1;jettySize=auto;html=1;exitX=1;exitY=0.25;exitDx=0;exitDy=0;entryX=0;entryY=0.5;entryDx=0;entryDy=0;" edge="1" parent="1" source="8txxsvsdvNJO4Pn-lYR--4" target="8txxsvsdvNJO4Pn-lYR--10">
          <mxGeometry relative="1" as="geometry" />
        </mxCell>
        <mxCell id="8txxsvsdvNJO4Pn-lYR--4" value="PASS" style="rounded=0;whiteSpace=wrap;html=1;" vertex="1" parent="1">
          <mxGeometry x="180" y="670" width="120" height="60" as="geometry" />
        </mxCell>
        <mxCell id="8txxsvsdvNJO4Pn-lYR--5" value="DRIV" style="rounded=0;whiteSpace=wrap;html=1;" vertex="1" parent="1">
          <mxGeometry x="180" y="350" width="120" height="60" as="geometry" />
        </mxCell>
        <mxCell id="8txxsvsdvNJO4Pn-lYR--7" value="" style="shape=or;whiteSpace=wrap;html=1;" vertex="1" parent="1">
          <mxGeometry x="440" y="380" width="60" height="80" as="geometry" />
        </mxCell>
        <mxCell id="8txxsvsdvNJO4Pn-lYR--8" value="" style="shape=or;whiteSpace=wrap;html=1;" vertex="1" parent="1">
          <mxGeometry x="440" y="610" width="60" height="80" as="geometry" />
        </mxCell>
        <mxCell id="8txxsvsdvNJO4Pn-lYR--9" value="" style="triangle;whiteSpace=wrap;html=1;fillColor=#f8cecc;strokeColor=#b85450;" vertex="1" parent="1">
          <mxGeometry x="340" y="480" width="40" height="50" as="geometry" />
        </mxCell>
        <mxCell id="8txxsvsdvNJO4Pn-lYR--10" value="" style="triangle;whiteSpace=wrap;html=1;fillColor=#f8cecc;strokeColor=#b85450;" vertex="1" parent="1">
          <mxGeometry x="340" y="670" width="40" height="50" as="geometry" />
        </mxCell>
        <mxCell id="8txxsvsdvNJO4Pn-lYR--11" value="ALARM" style="rounded=0;whiteSpace=wrap;html=1;" vertex="1" parent="1">
          <mxGeometry x="1010" y="500" width="120" height="60" as="geometry" />
        </mxCell>
        <mxCell id="8txxsvsdvNJO4Pn-lYR--12" value="" style="shape=xor;whiteSpace=wrap;html=1;" vertex="1" parent="1">
          <mxGeometry x="570" y="480" width="60" height="80" as="geometry" />
        </mxCell>
        <mxCell id="8txxsvsdvNJO4Pn-lYR--14" style="edgeStyle=orthogonalEdgeStyle;rounded=0;orthogonalLoop=1;jettySize=auto;html=1;exitX=1;exitY=0.5;exitDx=0;exitDy=0;entryX=0;entryY=0.5;entryDx=0;entryDy=0;entryPerimeter=0;" edge="1" parent="1" source="8txxsvsdvNJO4Pn-lYR--5" target="8txxsvsdvNJO4Pn-lYR--7">
          <mxGeometry relative="1" as="geometry" />
        </mxCell>
        <mxCell id="8txxsvsdvNJO4Pn-lYR--15" style="edgeStyle=orthogonalEdgeStyle;rounded=0;orthogonalLoop=1;jettySize=auto;html=1;exitX=1;exitY=0.5;exitDx=0;exitDy=0;entryX=0;entryY=0.75;entryDx=0;entryDy=0;entryPerimeter=0;" edge="1" parent="1" source="8txxsvsdvNJO4Pn-lYR--9" target="8txxsvsdvNJO4Pn-lYR--7">
          <mxGeometry relative="1" as="geometry" />
        </mxCell>
        <mxCell id="8txxsvsdvNJO4Pn-lYR--16" style="edgeStyle=orthogonalEdgeStyle;rounded=0;orthogonalLoop=1;jettySize=auto;html=1;entryX=0;entryY=0.5;entryDx=0;entryDy=0;entryPerimeter=0;" edge="1" parent="1" source="8txxsvsdvNJO4Pn-lYR--3" target="8txxsvsdvNJO4Pn-lYR--8">
          <mxGeometry relative="1" as="geometry" />
        </mxCell>
        <mxCell id="8txxsvsdvNJO4Pn-lYR--18" style="edgeStyle=orthogonalEdgeStyle;rounded=0;orthogonalLoop=1;jettySize=auto;html=1;exitX=1;exitY=0.5;exitDx=0;exitDy=0;entryX=0;entryY=0.75;entryDx=0;entryDy=0;entryPerimeter=0;" edge="1" parent="1" source="8txxsvsdvNJO4Pn-lYR--10" target="8txxsvsdvNJO4Pn-lYR--8">
          <mxGeometry relative="1" as="geometry" />
        </mxCell>
        <mxCell id="8txxsvsdvNJO4Pn-lYR--19" style="edgeStyle=orthogonalEdgeStyle;rounded=0;orthogonalLoop=1;jettySize=auto;html=1;exitX=1;exitY=0.5;exitDx=0;exitDy=0;exitPerimeter=0;entryX=0.481;entryY=0.039;entryDx=0;entryDy=0;entryPerimeter=0;" edge="1" parent="1" source="8txxsvsdvNJO4Pn-lYR--7" target="8txxsvsdvNJO4Pn-lYR--12">
          <mxGeometry relative="1" as="geometry" />
        </mxCell>
        <mxCell id="8txxsvsdvNJO4Pn-lYR--20" style="edgeStyle=orthogonalEdgeStyle;rounded=0;orthogonalLoop=1;jettySize=auto;html=1;exitX=1;exitY=0.5;exitDx=0;exitDy=0;exitPerimeter=0;entryX=0.463;entryY=1.025;entryDx=0;entryDy=0;entryPerimeter=0;" edge="1" parent="1" source="8txxsvsdvNJO4Pn-lYR--8" target="8txxsvsdvNJO4Pn-lYR--12">
          <mxGeometry relative="1" as="geometry" />
        </mxCell>
        <mxCell id="8txxsvsdvNJO4Pn-lYR--28" style="edgeStyle=orthogonalEdgeStyle;rounded=0;orthogonalLoop=1;jettySize=auto;html=1;exitX=1;exitY=0.5;exitDx=0;exitDy=0;entryX=0;entryY=0.5;entryDx=0;entryDy=0;" edge="1" parent="1" source="8txxsvsdvNJO4Pn-lYR--21" target="8txxsvsdvNJO4Pn-lYR--11">
          <mxGeometry relative="1" as="geometry" />
        </mxCell>
        <mxCell id="8txxsvsdvNJO4Pn-lYR--21" value="" style="triangle;whiteSpace=wrap;html=1;fillColor=#f8cecc;strokeColor=#b85450;" vertex="1" parent="1">
          <mxGeometry x="930" y="505" width="40" height="50" as="geometry" />
        </mxCell>
        <mxCell id="8txxsvsdvNJO4Pn-lYR--27" style="edgeStyle=orthogonalEdgeStyle;rounded=0;orthogonalLoop=1;jettySize=auto;html=1;exitX=1;exitY=0.5;exitDx=0;exitDy=0;exitPerimeter=0;entryX=0;entryY=0.5;entryDx=0;entryDy=0;" edge="1" parent="1" source="8txxsvsdvNJO4Pn-lYR--24" target="8txxsvsdvNJO4Pn-lYR--21">
          <mxGeometry relative="1" as="geometry" />
        </mxCell>
        <mxCell id="8txxsvsdvNJO4Pn-lYR--24" value="" style="shape=or;whiteSpace=wrap;html=1;" vertex="1" parent="1">
          <mxGeometry x="800" y="360" width="60" height="80" as="geometry" />
        </mxCell>
        <mxCell id="8txxsvsdvNJO4Pn-lYR--25" style="edgeStyle=orthogonalEdgeStyle;rounded=0;orthogonalLoop=1;jettySize=auto;html=1;exitX=1;exitY=0.5;exitDx=0;exitDy=0;entryX=0;entryY=0.5;entryDx=0;entryDy=0;entryPerimeter=0;" edge="1" parent="1" source="8txxsvsdvNJO4Pn-lYR--1" target="8txxsvsdvNJO4Pn-lYR--24">
          <mxGeometry relative="1" as="geometry" />
        </mxCell>
        <mxCell id="8txxsvsdvNJO4Pn-lYR--26" style="edgeStyle=orthogonalEdgeStyle;rounded=0;orthogonalLoop=1;jettySize=auto;html=1;exitX=1;exitY=0.5;exitDx=0;exitDy=0;exitPerimeter=0;entryX=0;entryY=0.75;entryDx=0;entryDy=0;entryPerimeter=0;" edge="1" parent="1" source="8txxsvsdvNJO4Pn-lYR--12" target="8txxsvsdvNJO4Pn-lYR--24">
          <mxGeometry relative="1" as="geometry" />
        </mxCell>
      </root>
    </mxGraphModel>
  </diagram>
</mxfile>
